<?xml version="1.0"?>
<svg xmlns="http://www.w3.org/2000/svg" xmlns:xlink="http://www.w3.org/1999/xlink" data-noselect=""
     viewBox="0 180 800 240" width="1600" height="600" preserveAspectRatio="none" version="1.1">
    <defs/>
    <g id="background" data-noselect="">
        <rect fill="#ffffff" width="800" height="600" data-noselect=""/> <!---->
    </g>
    <g id="shape_XC3anufg94"
       transform="translate(96.41570663451998,249.63333773276497) rotate(0,47.055337721988,50.366662267237) scale(1,1)"
       filter="" style="cursor: move; opacity: 1;">
        <g>
            <svg xmlns="http://www.w3.org/2000/svg" xmlns:xlink="http://www.w3.org/1999/xlink" version="1.1" id="&#x56FE;&#x5C42;_1" x="0px" y="0px" width="94.110675443975" height="100.73332453447" viewBox="20.32799530029297 29.573009490966797 143.8211669921875 153.94198608398438" enable-background="new 0 0 200 200" xml:space="preserve" class="style-removed" preserveAspectRatio="none" data-parent="shape_XC3anufg94">
<g>
	<g>
		<path fill="#268CC4"
              d="M101.72,132.048c-1.162,0-2.339-0.289-3.424-0.901c-17.057-9.614-27.652-27.74-27.652-47.301    c0-29.923,24.345-54.273,54.269-54.273c12.813,0,25.156,4.81,36.688,14.298c2.98,2.451,3.408,6.852,0.957,9.833    c-2.451,2.986-6.854,3.418-9.837,0.955c-8.963-7.37-18.319-11.11-27.808-11.11c-22.217,0-40.292,18.076-40.292,40.296    c0,14.528,7.87,27.985,20.539,35.126c3.362,1.894,4.552,6.158,2.656,9.516C106.531,130.771,104.16,132.048,101.72,132.048z"/>
	</g>
    <g>
		<path fill="#268CC4"
              d="M127.259,183.515H77.631c-32.132,0-57.303-23.863-57.303-54.322c0-30.529,25.706-55.37,57.303-55.37    c3.86,0,6.988,3.128,6.988,6.988s-3.128,6.988-6.988,6.988c-23.891,0-43.326,18.568-43.326,41.394    c0,22.624,19.032,40.346,43.326,40.346h49.628c3.86,0,6.988,3.128,6.988,6.988S131.119,183.515,127.259,183.515z"/>
	</g>
</g>
</svg>
        </g>
    </g>
    <g id="shape_mI5FT2hDya"
       transform="translate(106.58429336548,192.36115749594498) rotate(0,218,114.99725000000001) scale(1,1)" filter=""
       style="cursor: move; opacity: 1;">
        <g>
            <svg xmlns="http://www.w3.org/2000/svg" xmlns:xlink="http://www.w3.org/1999/xlink" version="1.1" width="668"
                 height="214.978" viewBox="0 0 668 214.978" data-parent="shape_mI5FT2hDya">
                <g data-width="525.755" transform="translate(71, 0)">
                    <path d="M4.26-20.73L4.26-47.36L14.27-47.36L14.27-20.73Q14.48-15.69 14.70-14.06L14.70-14.06Q15.19-10.79 17.82-9.62Q20.45-8.45 27.05-8.45L27.05-8.45L36.71-8.45L36.71 0L25.99 0Q18.39 0 14.98-0.85L14.98-0.85Q7.17-3.12 5.04-10.79L5.04-10.79Q4.26-13.77 4.26-20.73L4.26-20.73Z"
                          transform="translate(0 131.989) " fill="#268cc4" stroke="#268cc4" stroke-linecap="square"
                          stroke-linejoin="square" stroke-width="0.118" data-glyph-w="37.772000000000006"
                          data-glyph-h="71.00000000000001" data-glyph-ascender="60.989000000000004"
                          data-glyph-descender="-10.011000000000001"/>
                    <path d="M25.63-47.64L25.63-47.64Q32.73-47.64 38.13-45.23L38.13-45.23Q44.45-42.32 47.00-35.50L47.00-35.50Q48.99-30.18 48.99-23.00L48.99-23.00Q48.99-15.76 46.58-10.44L46.58-10.44Q43.52-4.12 37.20-1.56L37.20-1.56Q32.52 0.28 26.41 0.28L26.41 0.28Q18.39 0.28 12.50-2.70L12.50-2.70Q7.53-5.18 4.90-10.51Q2.27-15.83 2.27-23.43L2.27-23.43Q2.27-36.99 9.02-42.74L9.02-42.74Q14.70-47.57 25.63-47.64ZM25.70-39.69L25.70-39.69Q18.74-39.69 15.76-35.15L15.76-35.15Q13.35-31.60 13.35-23.71L13.35-23.71Q13.35-15.41 16.33-11.50L16.33-11.50Q19.31-7.67 25.77-7.67L25.77-7.67Q32.02-7.67 34.97-11.57Q37.91-15.48 37.91-23.64L37.91-23.64Q37.91-31.10 35.50-35.00L35.50-35.00Q32.73-39.62 25.70-39.69Z"
                          transform="translate(37.772000000000006 131.989) " fill="#268cc4" stroke="#268cc4"
                          stroke-linecap="square" stroke-linejoin="square" stroke-width="0.118"
                          data-glyph-w="51.26200000000001" data-glyph-h="71.00000000000001"
                          data-glyph-ascender="60.989000000000004" data-glyph-descender="-10.011000000000001"/>
                    <path d="M0.92-47.36L11.36-47.36L22.01-11.72L31.95-47.36L43.17-47.36L53.11-11.72L63.76-47.36L74.12-47.36L58.86 0L47.36 0L37.56-34.15L27.76 0L16.26 0L0.92-47.36Z"
                          transform="translate(89.03400000000002 131.989) " fill="#268cc4" stroke="#268cc4"
                          stroke-linecap="square" stroke-linejoin="square" stroke-width="0.118"
                          data-glyph-w="75.04700000000001" data-glyph-h="71.00000000000001"
                          data-glyph-ascender="60.989000000000004" data-glyph-descender="-10.011000000000001"/>
                    <path d="M23.36-47.36L40.33-47.36L40.33-38.91L27.19-38.91Q22.08-38.91 19.74-38.20Q17.40-37.49 15.83-35.43L15.83-35.43Q14.77-34.01 14.38-32.59Q13.99-31.17 13.70-27.76L13.70-27.76L40.33-27.76L40.33-19.31L13.70-19.31Q14.27-13.21 17.32-10.83Q20.38-8.45 27.69-8.45L27.69-8.45L40.33-8.45L40.33 0L27.19 0Q21.87 0 17.82-0.64L17.82-0.64Q11.43-1.70 7.67-6.25L7.67-6.25Q2.27-12.78 2.27-23.93L2.27-23.93Q2.27-36.28 9.87-43.17L9.87-43.17Q12.50-45.51 15.44-46.43Q18.39-47.36 23.36-47.36L23.36-47.36Z"
                          transform="translate(164.08100000000002 131.989) " fill="#268cc4" stroke="#268cc4"
                          stroke-linecap="square" stroke-linejoin="square" stroke-width="0.118"
                          data-glyph-w="43.452000000000005" data-glyph-h="71.00000000000001"
                          data-glyph-ascender="60.989000000000004" data-glyph-descender="-10.011000000000001"/>
                    <path d="M23.00-17.96L14.91-17.96L14.91 0L4.83 0L4.83-47.36L27.97-47.36Q37.91-47.36 41.82-44.80L41.82-44.80Q44.52-43.10 45.97-40.29Q47.43-37.49 47.43-34.15L47.43-34.15Q47.43-27.41 44.02-23.71L44.02-23.71Q41.89-21.51 38.41-20.38L38.41-20.38Q41.18-19.38 42.60-18.28Q44.02-17.18 45.16-15.05L45.16-15.05Q46.01-13.35 46.40-11.79Q46.79-10.22 47.00-7.17L47.00-7.17Q47.43-2.06 48.14 0L48.14 0L36.85 0Q36.35-1.63 35.78-6.75L35.78-6.75Q35.43-10.86 34.33-13.06Q33.23-15.27 31.03-16.54L31.03-16.54Q28.26-18.03 23.00-17.96L23.00-17.96ZM14.91-38.91L14.91-26.41L29.04-26.41Q32.59-26.41 34.08-27.48L34.08-27.48Q36.35-29.04 36.35-32.94L36.35-32.94Q36.35-37.28 32.94-38.48L32.94-38.48Q31.74-38.91 29.04-38.91L29.04-38.91L14.91-38.91Z"
                          transform="translate(207.53300000000002 131.989) " fill="#268cc4" stroke="#268cc4"
                          stroke-linecap="square" stroke-linejoin="square" stroke-width="0.118" data-glyph-w="50.694"
                          data-glyph-h="71.00000000000001" data-glyph-ascender="60.989000000000004"
                          data-glyph-descender="-10.011000000000001"/>
                    <path d="" transform="translate(258.22700000000003 131.989) " fill="#268cc4" stroke="#268cc4"
                          stroke-linecap="square" stroke-linejoin="square" stroke-width="0.118"
                          data-glyph-w="28.258000000000003" data-glyph-h="71.00000000000001"
                          data-glyph-ascender="62.480000000000004" data-glyph-descender="-8.520000000000001"/>
                    <path d="M26.34-8.45L40.83-8.45L40.83 0L24.28 0Q19.60 0 17.11-0.50L17.11-0.50Q8.38-2.20 4.69-10.22L4.69-10.22Q2.27-15.62 2.27-23.57L2.27-23.57Q2.27-33.09 5.96-39.05L5.96-39.05Q8.66-43.38 13.17-45.37Q17.68-47.36 24.78-47.36L24.78-47.36L40.83-47.36L40.83-38.91L25.92-38.91Q19.17-38.91 16.05-35.29L16.05-35.29Q13.42-32.31 13.42-24.50L13.42-24.50Q13.42-13.99 17.47-10.72L17.47-10.72Q20.31-8.45 26.34-8.45L26.34-8.45Z"
                          transform="translate(286.485 131.989) " fill="#268cc4" stroke="#268cc4"
                          stroke-linecap="square" stroke-linejoin="square" stroke-width="0.118" data-glyph-w="43.026"
                          data-glyph-h="71.00000000000001" data-glyph-ascender="60.989000000000004"
                          data-glyph-descender="-10.011000000000001"/>
                    <path d="M25.63-47.64L25.63-47.64Q32.73-47.64 38.13-45.23L38.13-45.23Q44.45-42.32 47.00-35.50L47.00-35.50Q48.99-30.18 48.99-23.00L48.99-23.00Q48.99-15.76 46.58-10.44L46.58-10.44Q43.52-4.12 37.20-1.56L37.20-1.56Q32.52 0.28 26.41 0.28L26.41 0.28Q18.39 0.28 12.50-2.70L12.50-2.70Q7.53-5.18 4.90-10.51Q2.27-15.83 2.27-23.43L2.27-23.43Q2.27-36.99 9.02-42.74L9.02-42.74Q14.70-47.57 25.63-47.64ZM25.70-39.69L25.70-39.69Q18.74-39.69 15.76-35.15L15.76-35.15Q13.35-31.60 13.35-23.71L13.35-23.71Q13.35-15.41 16.33-11.50L16.33-11.50Q19.31-7.67 25.77-7.67L25.77-7.67Q32.02-7.67 34.97-11.57Q37.91-15.48 37.91-23.64L37.91-23.64Q37.91-31.10 35.50-35.00L35.50-35.00Q32.73-39.62 25.70-39.69Z"
                          transform="translate(329.511 131.989) " fill="#268cc4" stroke="#268cc4"
                          stroke-linecap="square" stroke-linejoin="square" stroke-width="0.118"
                          data-glyph-w="51.26200000000001" data-glyph-h="71.00000000000001"
                          data-glyph-ascender="60.989000000000004" data-glyph-descender="-10.011000000000001"/>
                    <path d="M4.83 0L4.83-47.36L24.92-47.36Q32.45-47.36 36.57-45.87L36.57-45.87Q44.16-43.10 46.72-35.71L46.72-35.71Q48.64-30.03 48.64-23.57L48.64-23.57Q48.64-17.18 46.79-11.50L46.79-11.50Q44.94-5.68 40.68-2.91L40.68-2.91Q37.99-1.21 34.75-0.60Q31.52 0 24.92 0L24.92 0L4.83 0ZM24.92-38.91L14.91-38.91L14.91-8.45L24.92-8.45Q31.52-8.45 34.08-11.36L34.08-11.36Q35.64-13.21 36.60-16.54Q37.56-19.88 37.56-23.64L37.56-23.64Q37.56-27.83 36.42-31.31Q35.29-34.79 33.44-36.49L33.44-36.49Q30.74-38.91 24.92-38.91L24.92-38.91Z"
                          transform="translate(380.773 131.989) " fill="#268cc4" stroke="#268cc4"
                          stroke-linecap="square" stroke-linejoin="square" stroke-width="0.118"
                          data-glyph-w="50.836000000000006" data-glyph-h="71.00000000000001"
                          data-glyph-ascender="60.989000000000004" data-glyph-descender="-10.011000000000001"/>
                    <path d="M23.36-47.36L40.33-47.36L40.33-38.91L27.19-38.91Q22.08-38.91 19.74-38.20Q17.40-37.49 15.83-35.43L15.83-35.43Q14.77-34.01 14.38-32.59Q13.99-31.17 13.70-27.76L13.70-27.76L40.33-27.76L40.33-19.31L13.70-19.31Q14.27-13.21 17.32-10.83Q20.38-8.45 27.69-8.45L27.69-8.45L40.33-8.45L40.33 0L27.19 0Q21.87 0 17.82-0.64L17.82-0.64Q11.43-1.70 7.67-6.25L7.67-6.25Q2.27-12.78 2.27-23.93L2.27-23.93Q2.27-36.28 9.87-43.17L9.87-43.17Q12.50-45.51 15.44-46.43Q18.39-47.36 23.36-47.36L23.36-47.36Z"
                          transform="translate(431.60900000000004 131.989) " fill="#268cc4" stroke="#268cc4"
                          stroke-linecap="square" stroke-linejoin="square" stroke-width="0.118"
                          data-glyph-w="43.452000000000005" data-glyph-h="71.00000000000001"
                          data-glyph-ascender="60.989000000000004" data-glyph-descender="-10.011000000000001"/>
                    <path d="M23.00-17.96L14.91-17.96L14.91 0L4.83 0L4.83-47.36L27.97-47.36Q37.91-47.36 41.82-44.80L41.82-44.80Q44.52-43.10 45.97-40.29Q47.43-37.49 47.43-34.15L47.43-34.15Q47.43-27.41 44.02-23.71L44.02-23.71Q41.89-21.51 38.41-20.38L38.41-20.38Q41.18-19.38 42.60-18.28Q44.02-17.18 45.16-15.05L45.16-15.05Q46.01-13.35 46.40-11.79Q46.79-10.22 47.00-7.17L47.00-7.17Q47.43-2.06 48.14 0L48.14 0L36.85 0Q36.35-1.63 35.78-6.75L35.78-6.75Q35.43-10.86 34.33-13.06Q33.23-15.27 31.03-16.54L31.03-16.54Q28.26-18.03 23.00-17.96L23.00-17.96ZM14.91-38.91L14.91-26.41L29.04-26.41Q32.59-26.41 34.08-27.48L34.08-27.48Q36.35-29.04 36.35-32.94L36.35-32.94Q36.35-37.28 32.94-38.48L32.94-38.48Q31.74-38.91 29.04-38.91L29.04-38.91L14.91-38.91Z"
                          transform="translate(475.06100000000004 131.989) " fill="#268cc4" stroke="#268cc4"
                          stroke-linecap="square" stroke-linejoin="square" stroke-width="0.118" data-glyph-w="50.694"
                          data-glyph-h="71.00000000000001" data-glyph-ascender="60.989000000000004"
                          data-glyph-descender="-10.011000000000001"/>
                </g>
            </svg>
        </g>
    </g>
    <g id="shape_EaogVlim6U"
       transform="translate(156.58430862426997,306.613737360455) rotate(0,107.942,36.1065) scale(1,1)" filter=""
       style="cursor: move; opacity: 1;">
        <g>
            <svg xmlns="http://www.w3.org/2000/svg" xmlns:xlink="http://www.w3.org/1999/xlink" version="1.1" width="219"
                 height="63.96000000000001" viewBox="0 0 219 63.96000000000001" data-parent="shape_EaogVlim6U">
                <g data-width="176.358" transform="translate(21, 0)">
                    <path d="M4.83-14.24L4.83-14.24L6.30-13.84Q4.64-9.83 2.56-6.93L2.56-6.93Q2.31-7.10 1.90-7.32Q1.49-7.54 1.20-7.69L1.20-7.69Q3.38-10.46 4.83-14.24ZM14.72-13.65L14.72-13.65L16.00-14.26Q17.12-12.68 18.20-10.93Q19.28-9.18 19.91-7.88L19.91-7.88L18.61-7.08Q17.96-8.44 16.88-10.25Q15.81-12.05 14.72-13.65ZM15.96-6.76L15.96-6.76L17.37-6.09Q15.20-2.77 11.15-0.92Q7.10 0.92 1.53 1.60L1.53 1.60Q1.41 1.24 1.21 0.83Q1.01 0.42 0.78 0.11L0.78 0.11Q6.15-0.44 10.06-2.08Q13.97-3.72 15.96-6.76ZM9.43-4.70L9.43-17.54L10.96-17.54L10.96-4.70L9.43-4.70Z"
                          transform="translate(0 39.480000000000004) " fill="#268cc4" stroke="#268cc4"
                          stroke-linecap="square" stroke-linejoin="square" stroke-width="0.035" data-glyph-w="21"
                          data-glyph-h="21" data-glyph-ascender="18.48" data-glyph-descender="-2.52"/>
                    <path d="M5.02-6.01L15.92-6.01L15.92-9.74L5.02-9.74L5.02-6.01ZM11.11-11.21L17.49-11.21L17.49-4.54L3.53-4.54L3.53-11.21L9.55-11.21L9.55-17.58L11.11-17.58L11.11-15.33L19.05-15.33L19.05-13.86L11.11-13.86L11.11-11.21ZM2.37 1.60L2.37 1.60L0.95 0.90Q2.71-0.74 3.80-3.28L3.80-3.28L5.27-2.90Q4.16-0.25 2.37 1.60ZM7.16-2.71L7.16-2.71L8.65-2.83Q8.86-1.81 9.01-0.69Q9.16 0.42 9.18 1.22L9.18 1.22L7.62 1.43Q7.62 0.63 7.50-0.51Q7.37-1.66 7.16-2.71ZM11.47-2.69L11.47-2.69L12.87-3.00Q13.38-2.02 13.81-0.91Q14.24 0.19 14.45 1.01L14.45 1.01L12.94 1.36Q12.77 0.55 12.36-0.58Q11.95-1.70 11.47-2.69ZM15.73-2.88L15.73-2.88L17.09-3.40Q17.91-2.37 18.69-1.22Q19.47-0.06 19.89 0.84L19.89 0.84L18.42 1.43Q18.04 0.53 17.29-0.65Q16.55-1.83 15.73-2.88Z"
                          transform="translate(21 39.480000000000004) " fill="#268cc4" stroke="#268cc4"
                          stroke-linecap="square" stroke-linejoin="square" stroke-width="0.035" data-glyph-w="21"
                          data-glyph-h="21" data-glyph-ascender="18.48" data-glyph-descender="-2.52"/>
                    <path d="M19.55-13.76L19.55-13.76L18.33-12.92Q17.79-13.65 16.85-14.61Q15.92-15.56 14.95-16.36L14.95-16.36L16.09-17.12Q17.07-16.34 18.03-15.41Q18.98-14.49 19.55-13.76ZM6.59-17.33L6.59-17.33L8.06-16.86Q7.14-14.66 5.82-12.62L5.82-12.62L5.82 1.58L4.24 1.58L4.24-10.37Q2.88-8.61 1.43-7.29L1.43-7.29Q1.28-7.60 1.01-8.05Q0.74-8.51 0.53-8.80L0.53-8.80Q4.33-12.12 6.59-17.33ZM19.74-12.03L19.95-10.56L13.61-9.77Q14.13-5.54 15.19-2.99Q16.25-0.44 17.93-0.23L17.93-0.23Q18.82-0.19 19.09-3.84L19.09-3.84Q19.34-3.61 19.74-3.38Q20.14-3.15 20.39-3.02L20.39-3.02Q20.03-0.38 19.43 0.65Q18.82 1.68 18.00 1.60L18.00 1.60Q15.44 1.34 14.04-1.62Q12.64-4.58 12.08-9.55L12.08-9.55L7.04-8.93L6.83-10.40L11.91-11.03Q11.66-13.97 11.51-17.24L11.51-17.24L13.06-17.24Q13.15-14.03 13.46-11.24L13.46-11.24L19.74-12.03Z"
                          transform="translate(42 39.480000000000004) " fill="#268cc4" stroke="#268cc4"
                          stroke-linecap="square" stroke-linejoin="square" stroke-width="0.035" data-glyph-w="21"
                          data-glyph-h="21" data-glyph-ascender="18.48" data-glyph-descender="-2.52"/>
                    <path d="M3.86-2.44L6.32-2.44L6.32-8.63L3.86-8.63L3.86-2.44ZM3.70-15.02L1.13-15.02L1.13-16.46L8.29-16.46L8.29-15.02L5.17-15.02Q4.68-12.37 3.86-10.02L3.86-10.02L7.71-10.02L7.71-1.03L3.86-1.03L3.86 0.67L2.50 0.67L2.50-6.91Q2.00-5.99 1.41-5.23L1.41-5.23Q1.32-5.54 1.11-6.05Q0.90-6.55 0.69-6.89L0.69-6.89Q1.79-8.40 2.53-10.50Q3.28-12.60 3.70-15.02L3.70-15.02ZM8.63-4.33L16.61-4.33L16.61-2.92L8.63-2.92L8.63-4.33ZM17.07-8.42L17.07-8.42L19.66-8.42Q19.66-8.42 19.66-8.35Q19.66-8.27 19.65-8.16Q19.64-8.04 19.62-7.93Q19.61-7.81 19.61-7.73L19.61-7.73Q19.28-3.57 18.88-1.62Q18.48 0.34 17.93 0.84L17.93 0.84Q17.39 1.47 16.51 1.47L16.51 1.47Q15.60 1.55 14.01 1.47L14.01 1.47Q13.99 1.13 13.87 0.74Q13.76 0.34 13.57 0.02L13.57 0.02Q14.34 0.11 14.98 0.13Q15.62 0.15 15.90 0.15L15.90 0.15Q16.44 0.15 16.70-0.11L16.70-0.11Q17.09-0.46 17.44-2.07Q17.79-3.68 18.08-7.08L18.08-7.08L9.62-7.08Q9.83-8.40 10.02-10.21Q10.21-12.01 10.31-13.59L10.31-13.59L11.76-13.50Q11.57-10.94 11.26-8.42L11.26-8.42L15.62-8.42Q16.04-11.87 16.32-14.89L16.32-14.89L9.32-14.89L9.32-16.32L16.59-16.32L16.82-16.40L17.91-16.28Q17.64-12.66 17.07-8.42Z"
                          transform="translate(63 39.480000000000004) " fill="#268cc4" stroke="#268cc4"
                          stroke-linecap="square" stroke-linejoin="square" stroke-width="0.035" data-glyph-w="21"
                          data-glyph-h="21" data-glyph-ascender="18.48" data-glyph-descender="-2.52"/>
                    <path d="" transform="translate(84 39.480000000000004) " fill="#268cc4" stroke="#268cc4"
                          stroke-linecap="square" stroke-linejoin="square" stroke-width="0.035" data-glyph-w="8.358"
                          data-glyph-h="21" data-glyph-ascender="18.48" data-glyph-descender="-2.52"/>
                    <path d="M15.37-15.75L15.65-15.81L16.65-15.18Q14.53-11.70 10.59-9.57Q6.66-7.43 2.46-6.59L2.46-6.59Q2.35-6.93 2.14-7.33Q1.93-7.73 1.72-8.00L1.72-8.00Q5.31-8.63 8.76-10.25L8.76-10.25Q7.64-11.26 6.30-12.03L6.30-12.03L7.43-12.83Q8.88-12.01 10.12-10.94L10.12-10.94Q12.66-12.39 14.26-14.34L14.26-14.34L8.34-14.34Q6.32-12.66 3.47-11.34L3.47-11.34Q3.28-11.61 2.98-11.92Q2.69-12.22 2.42-12.43L2.42-12.43Q4.94-13.52 6.76-14.90Q8.59-16.28 9.60-17.60L9.60-17.60L11.30-17.24Q10.69-16.51 9.93-15.75L9.93-15.75L15.37-15.75ZM18.40-8.40L18.71-8.48L19.76-7.83Q18.27-4.77 15.58-2.82Q12.89-0.88 9.46 0.18Q6.03 1.24 2.29 1.66L2.29 1.66Q2.21 1.30 2.04 0.87Q1.87 0.44 1.66 0.15L1.66 0.15Q7.12-0.29 11.68-2.29L11.68-2.29Q10.54-3.38 9.22-4.39L9.22-4.39L10.50-5.12Q11.87-4.14 13.10-3.00L13.10-3.00Q15.81-4.54 17.43-6.97L17.43-6.97L11.76-6.97Q9.16-4.83 5.23-3.26L5.23-3.26Q5.08-3.53 4.80-3.86Q4.52-4.20 4.24-4.41L4.24-4.41Q7.43-5.59 9.64-7.17Q11.84-8.76 13.00-10.33L13.00-10.33L14.72-9.95Q14.11-9.16 13.34-8.40L13.34-8.40L18.40-8.40Z"
                          transform="translate(92.358 39.480000000000004) " fill="#268cc4" stroke="#268cc4"
                          stroke-linecap="square" stroke-linejoin="square" stroke-width="0.035" data-glyph-w="21"
                          data-glyph-h="21" data-glyph-ascender="18.48" data-glyph-descender="-2.52"/>
                    <path d="M5.02-6.01L15.92-6.01L15.92-9.74L5.02-9.74L5.02-6.01ZM11.11-11.21L17.49-11.21L17.49-4.54L3.53-4.54L3.53-11.21L9.55-11.21L9.55-17.58L11.11-17.58L11.11-15.33L19.05-15.33L19.05-13.86L11.11-13.86L11.11-11.21ZM2.37 1.60L2.37 1.60L0.95 0.90Q2.71-0.74 3.80-3.28L3.80-3.28L5.27-2.90Q4.16-0.25 2.37 1.60ZM7.16-2.71L7.16-2.71L8.65-2.83Q8.86-1.81 9.01-0.69Q9.16 0.42 9.18 1.22L9.18 1.22L7.62 1.43Q7.62 0.63 7.50-0.51Q7.37-1.66 7.16-2.71ZM11.47-2.69L11.47-2.69L12.87-3.00Q13.38-2.02 13.81-0.91Q14.24 0.19 14.45 1.01L14.45 1.01L12.94 1.36Q12.77 0.55 12.36-0.58Q11.95-1.70 11.47-2.69ZM15.73-2.88L15.73-2.88L17.09-3.40Q17.91-2.37 18.69-1.22Q19.47-0.06 19.89 0.84L19.89 0.84L18.42 1.43Q18.04 0.53 17.29-0.65Q16.55-1.83 15.73-2.88Z"
                          transform="translate(113.358 39.480000000000004) " fill="#268cc4" stroke="#268cc4"
                          stroke-linecap="square" stroke-linejoin="square" stroke-width="0.035" data-glyph-w="21"
                          data-glyph-h="21" data-glyph-ascender="18.48" data-glyph-descender="-2.52"/>
                    <path d="M12.20-13.23L17.41-13.23L17.41-15.18L12.20-15.18L12.20-13.23ZM12.20-10.04L17.41-10.04L17.41-12.01L12.20-12.01L12.20-10.04ZM12.20-6.85L17.41-6.85L17.41-8.84L12.20-8.84L12.20-6.85ZM10.75-16.46L18.90-16.46L18.90-5.57L10.75-5.57L10.75-16.46ZM8.71-4.94L8.71-4.94L9.81-5.73Q10.56-5.04 11.37-4.21Q12.18-3.38 12.71-2.77L12.71-2.77L11.57-1.85Q11.09-2.48 10.28-3.34Q9.47-4.20 8.71-4.94ZM2.42 0.50L2.42 0.50L1.05-0.19Q1.68-1.05 2.19-2.23Q2.71-3.40 3.02-4.45L3.02-4.45L4.39-3.93Q4.03-2.83 3.54-1.62Q3.05-0.40 2.42 0.50ZM6.53-10.46L6.53-5.36L5.04-5.36L5.04-10.88Q3.59-8.17 1.76-6.59L1.76-6.59Q1.58-6.87 1.29-7.17Q1.01-7.48 0.76-7.69L0.76-7.69Q3.21-9.60 4.77-13.08L4.77-13.08L1.22-13.08L1.22-14.45L5.04-14.45L5.04-17.51L6.53-17.51L6.53-14.45L9.85-14.45L9.85-13.08L6.53-13.08L6.53-11.91Q6.95-11.63 7.67-11.12Q8.38-10.61 9.05-10.11Q9.72-9.62 10.02-9.39L10.02-9.39L9.18-8.13Q8.74-8.55 7.99-9.20Q7.25-9.85 6.53-10.46L6.53-10.46ZM8.95-0.25L8.95-0.25L13.08-0.25Q13.84-0.25 14.07-0.69Q14.30-1.13 14.34-2.69L14.34-2.69Q14.62-2.48 15.03-2.32Q15.44-2.16 15.77-2.10L15.77-2.10Q15.65-0.17 15.13 0.49Q14.62 1.16 13.19 1.16L13.19 1.16L8.84 1.16Q7.14 1.16 6.56 0.75Q5.99 0.34 5.99-0.88L5.99-0.88L5.99-4.22L7.52-4.22L7.52-0.90Q7.52-0.50 7.78-0.38Q8.04-0.25 8.95-0.25ZM16.07-4.26L16.07-4.26L17.41-4.87Q18.08-3.84 18.80-2.68Q19.51-1.51 19.93-0.67L19.93-0.67L18.48 0.04Q18.08-0.82 17.40-2.01Q16.72-3.19 16.07-4.26Z"
                          transform="translate(134.358 39.480000000000004) " fill="#268cc4" stroke="#268cc4"
                          stroke-linecap="square" stroke-linejoin="square" stroke-width="0.035" data-glyph-w="21"
                          data-glyph-h="21" data-glyph-ascender="18.48" data-glyph-descender="-2.52"/>
                    <path d="M5.69-9.60L5.69-9.60L4.83-8.29Q4.16-8.84 3.08-9.46Q2.00-10.08 0.95-10.56L0.95-10.56L1.79-11.70Q2.81-11.28 3.91-10.70Q5.00-10.12 5.69-9.60ZM2.96 1.32L2.96 1.32L1.66 0.27Q2.52-0.97 3.61-2.79Q4.70-4.62 5.63-6.45L5.63-6.45L6.76-5.42Q4.98-1.85 2.96 1.32ZM2.08-16.21L2.08-16.21L2.92-17.35Q3.99-16.91 5.10-16.30Q6.22-15.69 6.91-15.16L6.91-15.16L6.01-13.86Q5.33-14.43 4.24-15.08Q3.15-15.73 2.08-16.21ZM19.68 0.88L19.68 0.88L18.31 1.58Q17.98 0.67 17.35-0.50L17.35-0.50Q14.45-0.15 12.69 0.08Q10.94 0.32 10.02 0.45Q9.09 0.59 8.69 0.68Q8.29 0.78 8.11 0.88L8.11 0.88Q8.04 0.59 7.89 0.13Q7.73-0.34 7.58-0.67L7.58-0.67Q8.17-0.86 8.93-2.04L8.93-2.04Q9.30-2.56 10.15-4.00Q11.00-5.44 11.82-7.25L11.82-7.25L7.14-7.25L7.14-8.74L12.54-8.74L12.54-12.47L8.06-12.47L8.06-13.97L12.54-13.97L12.54-17.58L14.09-17.58L14.09-13.97L18.73-13.97L18.73-12.47L14.09-12.47L14.09-8.74L19.59-8.74L19.59-7.25L13.67-7.25Q11.99-3.80 9.98-1.03L9.98-1.03L16.61-1.76Q15.73-3.21 14.74-4.47L14.74-4.47L16.00-5.06Q17.14-3.63 18.15-2.01Q19.17-0.38 19.68 0.88Z"
                          transform="translate(155.358 39.480000000000004) " fill="#268cc4" stroke="#268cc4"
                          stroke-linecap="square" stroke-linejoin="square" stroke-width="0.035" data-glyph-w="21"
                          data-glyph-h="21" data-glyph-ascender="18.48" data-glyph-descender="-2.52"/>
                </g>
            </svg>
        </g>
    </g>  <!---->
</svg>
